<?xml version="1.0" standalone="no"?>
<!DOCTYPE svg PUBLIC "-//W3C//DTD SVG 20010904//EN"
 "http://www.w3.org/TR/2001/REC-SVG-20010904/DTD/svg10.dtd">
<svg version="1.0" xmlns="http://www.w3.org/2000/svg"
 width="256.000000pt" height="256.000000pt" viewBox="0 0 256.000000 256.000000"
 preserveAspectRatio="xMidYMid meet">
<metadata>
Created by potrace 1.14, written by Peter Selinger 2001-2017
</metadata>
<g transform="translate(0.000000,256.000000) scale(0.100000,-0.100000)"
fill="#000000" stroke="none">
<path d="M1175 2229 c-413 -40 -753 -355 -836 -774 -16 -83 -14 -275 5 -361
74 -345 338 -628 676 -725 97 -27 312 -37 414 -19 360 64 657 331 757 680 30
107 38 326 14 441 -97 481 -538 806 -1030 758z m290 -183 c140 -38 245 -97
349 -196 110 -104 182 -225 222 -371 25 -90 25 -300 1 -389 -61 -221 -212
-406 -412 -504 -133 -66 -196 -81 -350 -80 -235 0 -406 73 -566 240 -288 303
-289 770 -1 1076 115 122 285 213 443 237 80 12 248 6 314 -13z"/>
<path d="M1764 1742 c-61 -44 -86 -79 -153 -215 -120 -241 -194 -287 -468
-287 -151 0 -151 8 -2 52 226 65 333 144 374 277 7 23 5 23 -41 -11 -78 -57
-127 -77 -226 -93 -180 -29 -213 -37 -264 -61 -128 -61 -274 -270 -305 -439
-5 -28 -6 -61 -2 -73 8 -19 12 -18 81 28 100 68 146 80 352 91 171 9 313 30
354 51 46 24 126 96 153 138 44 68 69 139 108 310 19 85 46 177 60 205 13 27
23 51 21 52 -1 2 -21 -10 -42 -25z"/>
</g>
</svg>
